<?xml version="1.0" encoding="UTF-8"?><svg id="logo" xmlns="http://www.w3.org/2000/svg" viewBox="0 0 502.5 209.44"><defs><style>.cls-1{fill:#fff;}</style></defs><rect id="back" class="cls-1" width="209.44" height="209.44"/><g id="center"><rect x="69.81" y="69.81" width="69.81" height="69.81"/></g><path id="flame" d="M0,0v209.44h209.44V0H0ZM174.54,174.54H34.91V34.91h139.63v139.63Z"/><path d="M267.06,39.06h60.03c32.74,0,48.1,13.94,48.1,35.97,0,15.97-7.28,23.44-19.81,27.69,22.03,6.06,29.91,19.4,29.91,35.77,0,22.43-15.76,42.04-54.77,42.04h-63.46V39.06ZM325.87,95.25c3.84,0,10.91-2.43,10.91-12.53s-7.07-11.72-10.91-11.72h-20.61v24.25h20.61ZM329.1,148.4c13.74,0,16.57-7.68,16.57-14.35,0-7.48-2.83-15.56-16.57-15.56h-23.85v29.91h23.85Z"/><path d="M400.03,39.06h100.45v33.14h-62.25v22.43h56.18v29.71h-56.18v23.04h64.27v33.14h-102.47V39.06Z"/></svg>